<svg width="187" height="56" viewBox="0 0 187 56" fill="none" xmlns="http://www.w3.org/2000/svg">
<path d="M13.7096 27.86C14.0696 27.98 14.0696 28.55 13.7096 29.57C12.9896 31.67 12.3896 33.35 11.9096 34.61C11.4896 35.87 11.1296 36.86 10.8296 37.58C10.5296 38.3 10.2296 38.78 9.92961 39.02C9.68961 39.26 9.38961 39.38 9.02961 39.38C8.54961 39.38 8.18961 38.99 7.94961 38.21C7.70961 37.37 7.52961 36.47 7.40961 35.51C7.28961 34.55 7.22961 33.68 7.22961 32.9C7.22961 32.12 7.22961 31.73 7.22961 31.73C7.04961 32.57 6.80961 33.47 6.50961 34.43C6.20961 35.33 5.87961 36.2 5.51961 37.04C5.15961 37.82 4.76961 38.51 4.34961 39.11C3.92961 39.65 3.50961 39.98 3.08961 40.1C2.36961 40.28 1.76961 40.1 1.28961 39.56C0.629609 38.66 0.359609 37.31 0.479609 35.51C0.539609 33.71 0.869609 31.94 1.46961 30.2C2.00961 28.4 2.72961 26.84 3.62961 25.52C4.58961 24.14 5.60961 23.39 6.68961 23.27C7.04961 23.27 7.28961 23.3 7.40961 23.36C7.64961 23.48 7.76961 23.39 7.76961 23.09C7.76961 22.79 7.79961 22.49 7.85961 22.19C7.97961 21.89 8.06961 21.59 8.12961 21.29C8.18961 20.87 8.42961 20.66 8.84961 20.66C9.14961 20.66 9.29961 20.81 9.29961 21.11C9.29961 21.53 9.26961 21.83 9.20961 22.01C9.08961 22.31 8.99961 22.61 8.93961 22.91C8.93961 23.21 8.90961 23.51 8.84961 23.81V24.35C8.90961 24.53 8.87961 24.8 8.75961 25.16C8.63961 25.4 8.57961 25.76 8.57961 26.24C8.45961 26.54 8.39961 26.87 8.39961 27.23C8.45961 27.59 8.45961 27.92 8.39961 28.22C8.27961 29.12 8.21961 30.08 8.21961 31.1C8.21961 32.12 8.24961 33.08 8.30961 33.98C8.42961 34.88 8.54961 35.66 8.66961 36.32C8.78961 36.98 8.84961 37.37 8.84961 37.49C8.96961 38.39 9.20961 38.54 9.56961 37.94C9.98961 37.28 10.4096 36.35 10.8296 35.15C11.2496 33.95 11.6396 32.75 11.9996 31.55C12.3596 30.29 12.5996 29.51 12.7196 29.21C12.7796 29.09 12.8696 28.82 12.9896 28.4C13.1696 27.98 13.4096 27.8 13.7096 27.86ZM7.31961 25.16C7.31961 24.98 7.25961 24.86 7.13961 24.8C6.53961 24.56 5.93961 24.71 5.33961 25.25C4.79961 25.73 4.28961 26.45 3.80961 27.41C3.32961 28.31 2.90961 29.36 2.54961 30.56C2.24961 31.76 2.03961 32.93 1.91961 34.07C1.73961 35.21 1.67961 36.23 1.73961 37.13C1.73961 37.97 1.91961 38.54 2.27961 38.84C2.45961 39.02 2.66961 39.05 2.90961 38.93C3.62961 38.27 4.22961 37.37 4.70961 36.23C5.24961 35.09 5.66961 33.86 5.96961 32.54C6.32961 31.22 6.59961 29.93 6.77961 28.67C7.01961 27.35 7.19961 26.18 7.31961 25.16ZM22.538 40.55C22.778 40.67 22.838 40.88 22.718 41.18C22.658 41.48 22.358 41.63 21.818 41.63C21.458 41.63 21.158 41.45 20.918 41.09C20.678 40.73 20.468 40.04 20.288 39.02C20.168 38 20.078 36.59 20.018 34.79C20.018 32.99 20.048 30.65 20.108 27.77C20.108 27.71 20.078 27.5 20.018 27.14C20.018 26.72 19.928 26.51 19.748 26.51C19.388 26.51 18.998 26.84 18.578 27.5C18.218 28.16 17.858 29.03 17.498 30.11C17.138 31.13 16.808 32.24 16.508 33.44C16.208 34.64 15.938 35.78 15.698 36.86C15.458 37.88 15.248 38.78 15.068 39.56C14.948 40.34 14.858 40.79 14.798 40.91C14.618 41.21 14.378 41.33 14.078 41.27C13.778 41.21 13.568 41.03 13.448 40.73C13.208 39.59 13.028 38.48 12.908 37.4C12.788 36.32 12.728 35.15 12.728 33.89C12.728 32.63 12.788 31.22 12.908 29.66C12.968 28.1 13.148 26.24 13.448 24.08C13.568 23.48 13.838 23.3 14.258 23.54C14.438 23.6 14.558 23.75 14.618 23.99C14.678 24.17 14.678 24.35 14.618 24.53C14.258 27.05 14.018 29.39 13.898 31.55C13.838 33.71 13.958 35.72 14.258 37.58L14.348 37.67V37.58C14.408 37.46 14.438 37.34 14.438 37.22C14.438 37.04 14.468 36.89 14.528 36.77C14.648 36.23 14.828 35.36 15.068 34.16C15.368 32.9 15.728 31.64 16.148 30.38C16.628 29.12 17.138 27.98 17.678 26.96C18.278 25.88 18.908 25.25 19.568 25.07C20.168 24.89 20.588 25.13 20.828 25.79C21.068 26.45 21.218 27.35 21.278 28.49C21.398 29.57 21.428 30.77 21.368 32.09C21.308 33.41 21.278 34.67 21.278 35.87C21.278 37.01 21.308 38.03 21.368 38.93C21.428 39.77 21.638 40.28 21.998 40.46C22.118 40.52 22.208 40.52 22.268 40.46C22.328 40.4 22.418 40.43 22.538 40.55ZM36.737 27.86C37.097 27.98 37.097 28.55 36.737 29.57C36.017 31.67 35.417 33.35 34.937 34.61C34.517 35.87 34.157 36.86 33.857 37.58C33.557 38.3 33.257 38.78 32.957 39.02C32.717 39.26 32.417 39.38 32.057 39.38C31.577 39.38 31.217 38.99 30.977 38.21C30.737 37.37 30.557 36.47 30.437 35.51C30.317 34.55 30.257 33.68 30.257 32.9C30.257 32.12 30.257 31.73 30.257 31.73C30.077 32.57 29.837 33.47 29.537 34.43C29.237 35.33 28.907 36.2 28.547 37.04C28.187 37.82 27.797 38.51 27.377 39.11C26.957 39.65 26.537 39.98 26.117 40.1C25.397 40.28 24.797 40.1 24.317 39.56C23.657 38.66 23.387 37.31 23.507 35.51C23.567 33.71 23.897 31.94 24.497 30.2C25.037 28.4 25.757 26.84 26.657 25.52C27.617 24.14 28.637 23.39 29.717 23.27C30.077 23.27 30.317 23.3 30.437 23.36C30.677 23.48 30.797 23.39 30.797 23.09C30.797 22.79 30.827 22.49 30.887 22.19C31.007 21.89 31.097 21.59 31.157 21.29C31.217 20.87 31.457 20.66 31.877 20.66C32.177 20.66 32.327 20.81 32.327 21.11C32.327 21.53 32.297 21.83 32.237 22.01C32.117 22.31 32.027 22.61 31.967 22.91C31.967 23.21 31.937 23.51 31.877 23.81V24.35C31.937 24.53 31.907 24.8 31.787 25.16C31.667 25.4 31.607 25.76 31.607 26.24C31.487 26.54 31.427 26.87 31.427 27.23C31.487 27.59 31.487 27.92 31.427 28.22C31.307 29.12 31.247 30.08 31.247 31.1C31.247 32.12 31.277 33.08 31.337 33.98C31.457 34.88 31.577 35.66 31.697 36.32C31.817 36.98 31.877 37.37 31.877 37.49C31.997 38.39 32.237 38.54 32.597 37.94C33.017 37.28 33.437 36.35 33.857 35.15C34.277 33.95 34.667 32.75 35.027 31.55C35.387 30.29 35.627 29.51 35.747 29.21C35.807 29.09 35.897 28.82 36.017 28.4C36.197 27.98 36.437 27.8 36.737 27.86ZM30.347 25.16C30.347 24.98 30.287 24.86 30.167 24.8C29.567 24.56 28.967 24.71 28.367 25.25C27.827 25.73 27.317 26.45 26.837 27.41C26.357 28.31 25.937 29.36 25.577 30.56C25.277 31.76 25.067 32.93 24.947 34.07C24.767 35.21 24.707 36.23 24.767 37.13C24.767 37.97 24.947 38.54 25.307 38.84C25.487 39.02 25.697 39.05 25.937 38.93C26.657 38.27 27.257 37.37 27.737 36.23C28.277 35.09 28.697 33.86 28.997 32.54C29.357 31.22 29.627 29.93 29.807 28.67C30.047 27.35 30.227 26.18 30.347 25.16ZM49.9754 11.84C50.3354 12.02 50.5154 12.26 50.5154 12.56C50.4554 12.68 50.3354 12.8 50.1554 12.92C49.9754 13.04 49.8254 13.1 49.7054 13.1C49.5254 13.1 48.8654 13.13 47.7254 13.19C46.5854 13.19 45.3554 13.19 44.0354 13.19C42.7154 13.19 41.5454 13.19 40.5254 13.19C39.5054 13.13 39.0554 13.1 39.1754 13.1V13.19C38.9354 14.75 38.6654 16.64 38.3654 18.86C38.0654 21.08 37.7954 23.42 37.5554 25.88C37.3754 28.34 37.2254 30.8 37.1054 33.26C36.9854 35.66 36.9554 37.85 37.0154 39.83C37.1354 41.75 37.3454 43.31 37.6454 44.51C37.9454 45.71 38.3954 46.31 38.9954 46.31C39.1754 46.31 39.2954 46.28 39.3554 46.22C39.4754 46.22 39.5954 46.28 39.7154 46.4C39.9554 46.52 40.0754 46.7 40.0754 46.94C40.0754 47.36 39.9854 47.69 39.8054 47.93C39.4454 48.17 39.1754 48.29 38.9954 48.29C38.6954 48.29 38.4554 48.2 38.2754 48.02C37.6154 47.6 37.0454 46.52 36.5654 44.78C36.0854 43.04 35.8154 40.7 35.7554 37.76C35.6354 34.82 35.7554 31.31 36.1154 27.23C36.4754 23.15 37.1054 18.53 38.0054 13.37V13.1C37.7054 13.22 37.2554 13.28 36.6554 13.28C36.1154 13.22 35.4854 13.22 34.7654 13.28C34.5854 13.34 34.4054 13.28 34.2254 13.1C34.0454 12.92 33.9854 12.77 34.0454 12.65C34.0454 12.17 34.3454 11.99 34.9454 12.11C35.0654 12.11 35.3354 12.14 35.7554 12.2C36.1754 12.2 36.5954 12.2 37.0154 12.2C37.4354 12.2 37.7654 12.2 38.0054 12.2C38.3054 12.2 38.3654 12.17 38.1854 12.11C38.1854 12.05 38.2754 11.51 38.4554 10.49C38.6354 9.47 38.8154 8.39 38.9954 7.25C39.2354 6.05 39.4454 5 39.6254 4.1C39.8054 3.14 39.8954 2.69 39.8954 2.75C39.9554 2.69 39.9554 2.6 39.8954 2.48C39.7754 2.06 39.8954 1.55 40.2554 0.949998C40.4954 0.709997 40.7354 0.589997 40.9754 0.589997C41.2154 0.589997 41.4254 0.739997 41.6054 1.04C41.9054 1.76 41.9054 2.3 41.6054 2.66V2.75L41.5154 2.84C41.3354 2.9 41.1854 3.11 41.0654 3.47V3.56C40.9454 3.92 40.7054 4.94 40.3454 6.62C40.0454 8.3 39.7454 10.07 39.4454 11.93C39.3854 11.99 39.3554 12.05 39.3554 12.11C39.4154 12.11 39.9554 12.11 40.9754 12.11C41.9954 12.11 43.1054 12.11 44.3054 12.11C45.5654 12.05 46.7054 12.02 47.7254 12.02C48.8054 11.96 49.3754 11.9 49.4354 11.84C49.5554 11.84 49.6454 11.84 49.7054 11.84C49.7654 11.78 49.8554 11.78 49.9754 11.84ZM49.5535 28.76C49.6135 28.76 49.6435 29.09 49.6435 29.75C49.6435 30.35 49.5835 31.13 49.4635 32.09C49.3435 33.05 49.1635 34.1 48.9235 35.24C48.6835 36.38 48.3535 37.43 47.9335 38.39C47.5735 39.35 47.0935 40.16 46.4935 40.82C45.8935 41.48 45.2035 41.81 44.4235 41.81C43.2235 41.81 42.4435 41 42.0835 39.38C41.6635 37.7 41.5135 35.81 41.6335 33.71C41.7535 31.61 42.0535 29.63 42.5335 27.77C43.0735 25.85 43.6135 24.62 44.1535 24.08C44.3335 23.96 44.4835 23.84 44.6035 23.72C44.7835 23.6 45.0235 23.51 45.3235 23.45C45.6835 23.45 45.8935 23.57 45.9535 23.81C46.0735 24.17 45.9235 24.41 45.5035 24.53C45.3235 24.65 45.1735 24.8 45.0535 24.98C44.9335 25.1 44.8135 25.22 44.6935 25.34C44.2135 25.94 43.7935 27.08 43.4335 28.76C43.0735 30.38 42.8335 32.09 42.7135 33.89C42.6535 35.63 42.7435 37.19 42.9835 38.57C43.2835 39.95 43.7935 40.64 44.5135 40.64C45.2935 40.64 45.9235 40.1 46.4035 39.02C46.9435 37.94 47.3635 36.71 47.6635 35.33C48.0235 33.95 48.2335 32.63 48.2935 31.37C48.4135 30.11 48.4435 29.27 48.3835 28.85C48.0235 28.97 47.6335 28.97 47.2135 28.85C46.7935 28.73 46.4035 28.55 46.0435 28.31C45.7435 28.07 45.5335 27.77 45.4135 27.41C45.3535 26.99 45.5035 26.51 45.8635 25.97C46.1035 25.55 46.7035 25.4 47.6635 25.52C48.3235 25.64 48.6835 25.88 48.7435 26.24C48.8635 26.6 49.0435 26.93 49.2835 27.23C49.3435 27.35 49.5535 27.41 49.9135 27.41C50.2735 27.41 50.6635 27.38 51.0835 27.32C51.5635 27.2 52.0135 27.11 52.4335 27.05C52.8535 26.93 53.1235 26.84 53.2435 26.78H53.7835C53.9035 26.9 53.9635 27.02 53.9635 27.14C54.0235 27.26 53.9635 27.38 53.7835 27.5C53.7835 27.5 53.7235 27.53 53.6035 27.59C53.4835 27.65 53.3935 27.68 53.3335 27.68C53.2735 27.68 53.1835 27.71 53.0635 27.77L49.5535 28.76ZM48.3835 27.68C48.3235 27.5 48.2335 27.29 48.1135 27.05C47.9935 26.93 47.8735 26.81 47.7535 26.69C47.6935 26.51 47.5735 26.42 47.3935 26.42C47.0335 26.42 46.8235 26.69 46.7635 27.23C46.7035 27.71 46.9135 27.95 47.3935 27.95C47.9335 27.95 48.2335 27.92 48.2935 27.86C48.3535 27.8 48.3835 27.74 48.3835 27.68ZM60.9104 0.949998C61.0304 1.25 61.0904 1.7 61.0904 2.3C60.9704 2.84 60.8504 3.38 60.7304 3.92C60.6704 4.4 60.5504 4.88 60.3704 5.36C60.3104 5.66 60.2204 6.05 60.1004 6.53C59.9804 6.77 59.8904 7.01 59.8304 7.25C59.7704 7.49 59.6804 7.76 59.5604 8.06C59.4404 8.36 59.3204 8.66 59.2004 8.96C59.1404 9.26 59.0504 9.56 58.9304 9.86C58.8104 10.16 58.6904 10.43 58.5704 10.67C58.5104 10.85 58.4504 11.09 58.3904 11.39C58.2704 11.63 58.1504 11.87 58.0304 12.11C57.9704 12.35 57.9104 12.59 57.8504 12.83C57.7304 13.25 57.5804 13.64 57.4004 14C57.2204 14.36 57.0704 14.72 56.9504 15.08C56.8904 15.32 56.8004 15.56 56.6804 15.8C56.6204 15.98 56.5304 16.19 56.4104 16.43C56.1704 17.27 55.8404 18.2 55.4204 19.22C55.2404 19.64 55.0604 20.06 54.8804 20.48C54.7604 20.9 54.6404 21.32 54.5204 21.74C54.4004 21.98 54.3404 22.16 54.3404 22.28C54.4004 22.52 54.4004 22.76 54.3404 23C54.3404 23.18 54.3404 23.39 54.3404 23.63V25.34C54.2804 25.52 54.2504 25.7 54.2504 25.88C54.3104 26.06 54.3404 26.24 54.3404 26.42C54.2804 27.2 54.2804 27.98 54.3404 28.76C54.4004 29.48 54.4304 30.23 54.4304 31.01L54.7004 35.6L54.9704 37.49C54.9704 37.67 54.9704 37.85 54.9704 38.03C55.0304 38.21 55.0604 38.42 55.0604 38.66C55.0604 38.78 55.0904 38.9 55.1504 39.02C55.2104 39.08 55.2404 39.17 55.2404 39.29C55.2404 39.59 55.2704 39.8 55.3304 39.92C55.3904 40.1 55.4204 40.28 55.4204 40.46C55.4204 40.58 55.4504 40.7 55.5104 40.82C55.5104 41 55.6004 41.09 55.7804 41.09C56.2604 41.09 56.5004 41.33 56.5004 41.81C56.5004 42.23 56.4704 42.53 56.4104 42.71C56.1704 43.01 55.8704 43.13 55.5104 43.07C55.2104 43.07 54.9704 42.92 54.7904 42.62L54.5204 41.81C54.2804 41.21 54.1904 40.76 54.2504 40.46C54.2504 40.34 54.2204 40.25 54.1604 40.19C54.1004 40.13 54.0704 40.04 54.0704 39.92C54.0704 39.68 54.0404 39.5 53.9804 39.38V39.29C53.9804 38.99 53.9504 38.72 53.8904 38.48C53.8304 38.18 53.8004 37.88 53.8004 37.58C53.6804 36.92 53.5904 36.29 53.5304 35.69C53.5304 35.09 53.5004 34.46 53.4404 33.8C53.4404 33.5 53.3804 33.05 53.2604 32.45V31.19C53.2004 30.95 53.1704 30.71 53.1704 30.47C53.1704 30.23 53.1704 29.99 53.1704 29.75C53.1104 29.27 53.0804 28.76 53.0804 28.22C53.1404 27.68 53.1404 27.17 53.0804 26.69C53.0804 26.63 53.0804 26.33 53.0804 25.79C53.1404 25.25 53.1704 24.65 53.1704 23.99C53.2304 23.27 53.2604 22.55 53.2604 21.83C53.3204 21.05 53.3504 20.42 53.3504 19.94C53.3504 19.82 53.3504 19.7 53.3504 19.58C53.4104 19.4 53.4404 19.25 53.4404 19.13C53.4404 19.01 53.4404 18.89 53.4404 18.77C53.5004 18.59 53.5304 18.41 53.5304 18.23C53.5304 17.87 53.5604 17.6 53.6204 17.42C53.6804 17.18 53.7104 16.94 53.7104 16.7C53.7104 16.46 53.7404 16.22 53.8004 15.98C53.8604 15.68 53.8904 15.35 53.8904 14.99C53.9504 14.63 54.0104 14.27 54.0704 13.91C54.1904 13.43 54.2804 12.98 54.3404 12.56C54.4004 12.08 54.4904 11.6 54.6104 11.12C54.7304 10.58 54.8504 10.04 54.9704 9.5C55.1504 8.96 55.3304 8.45 55.5104 7.97C55.6904 7.13 55.9004 6.47 56.1404 5.99C56.2604 5.63 56.3804 5.27 56.5004 4.91C56.6804 4.55 56.8304 4.22 56.9504 3.92C57.2504 3.38 57.5204 2.87 57.7604 2.39C58.0604 1.85 58.4504 1.34 58.9304 0.859999C59.0504 0.739999 59.1404 0.679999 59.2004 0.679999C59.3204 0.619998 59.4404 0.529997 59.5604 0.409997C59.8604 0.289998 60.1304 0.289998 60.3704 0.409997C60.6104 0.529997 60.7904 0.709997 60.9104 0.949998ZM59.3804 4.1C59.5004 3.74 59.5904 3.41 59.6504 3.11C59.7104 2.75 59.7704 2.39 59.8304 2.03V1.85C59.7104 1.85 59.6504 1.88 59.6504 1.94C59.6504 1.94 59.6204 1.94 59.5604 1.94C59.4404 2.06 59.3804 2.15 59.3804 2.21C58.9004 2.93 58.4204 3.77 57.9404 4.73C57.7004 5.15 57.4904 5.57 57.3104 5.99C57.1904 6.41 57.0704 6.86 56.9504 7.34C56.7704 7.82 56.5904 8.33 56.4104 8.87C56.2904 9.35 56.1704 9.86 56.0504 10.4C55.9304 10.88 55.8104 11.39 55.6904 11.93C55.5704 12.47 55.4504 13.01 55.3304 13.55C55.2704 13.91 55.2104 14.3 55.1504 14.72C55.1504 15.08 55.0904 15.44 54.9704 15.8V15.98V16.07C55.0304 16.07 55.0604 16.04 55.0604 15.98C55.0604 15.98 55.0904 15.92 55.1504 15.8C55.3904 15.32 55.6004 14.81 55.7804 14.27C55.9604 13.73 56.1704 13.19 56.4104 12.65C56.5304 12.23 56.6804 11.84 56.8604 11.48C57.0404 11.06 57.1904 10.64 57.3104 10.22C57.4904 9.74 57.6704 9.29 57.8504 8.87C58.0304 8.39 58.2104 7.91 58.3904 7.43C58.5704 6.89 58.7504 6.35 58.9304 5.81C59.1104 5.21 59.2604 4.64 59.3804 4.1ZM72.5485 40.01C72.7885 40.19 72.8185 40.43 72.6385 40.73C72.3985 40.97 72.2185 41.12 72.0985 41.18C72.0385 41.18 71.9785 41.21 71.9185 41.27C71.9185 41.27 71.8285 41.33 71.6485 41.45C71.5285 41.57 71.3485 41.72 71.1085 41.9C70.8685 42.14 70.6285 42.35 70.3885 42.53C70.1485 42.71 69.9685 42.83 69.8485 42.89C68.7085 46.73 67.8385 49.31 67.2385 50.63C66.8785 51.47 66.5785 52.1 66.3385 52.52C65.6185 53.9 64.9285 54.8 64.2685 55.22C63.6685 55.64 63.1585 55.7 62.7385 55.4C62.3185 55.16 62.0485 54.65 61.9285 53.87C61.8085 53.09 61.9285 52.16 62.2885 51.08C62.7085 49.94 63.2185 48.92 63.8185 48.02C64.4185 47.12 65.0185 46.31 65.6185 45.59C66.2185 44.93 66.7585 44.33 67.2385 43.79C67.7785 43.31 68.1985 42.92 68.4985 42.62C68.7985 42.32 69.0085 40.91 69.1285 38.39C69.3085 35.87 69.4885 32.51 69.6685 28.31C69.5485 28.61 69.3985 29.15 69.2185 29.93C69.0385 30.71 68.7985 31.61 68.4985 32.63C68.1985 33.59 67.8385 34.58 67.4185 35.6C67.0585 36.62 66.6385 37.52 66.1585 38.3C65.4985 39.38 64.8085 39.95 64.0885 40.01C63.4285 40.07 62.7985 39.8 62.1985 39.2C61.5985 38.54 61.0585 37.61 60.5785 36.41C60.0985 35.21 59.7385 33.89 59.4985 32.45C59.3185 31.01 59.2285 29.57 59.2285 28.13C59.2885 26.63 59.5285 25.25 59.9485 23.99C60.1285 23.63 60.3385 23.42 60.5785 23.36C60.8785 23.3 61.0885 23.36 61.2085 23.54C61.5085 23.84 61.5085 24.17 61.2085 24.53C60.9085 24.89 60.7585 25.22 60.7585 25.52C60.4585 28.04 60.4285 30.17 60.6685 31.91C60.9685 33.65 61.3285 35.06 61.7485 36.14C62.2285 37.16 62.6785 37.88 63.0985 38.3C63.5785 38.66 63.9085 38.78 64.0885 38.66C64.5085 38.48 64.9285 38.03 65.3485 37.31C65.7685 36.59 66.1585 35.72 66.5185 34.7C66.9385 33.68 67.3285 32.6 67.6885 31.46C68.0485 30.32 68.3485 29.27 68.5885 28.31C68.8885 27.29 69.0985 26.42 69.2185 25.7C69.3985 24.98 69.5185 24.53 69.5785 24.35C69.5785 24.23 69.6385 24.11 69.7585 23.99C69.8785 23.81 70.0285 23.72 70.2085 23.72C70.4485 23.6 70.5985 23.66 70.6585 23.9C70.7785 24.14 70.8085 24.26 70.7485 24.26C70.7485 27.98 70.7185 30.92 70.6585 33.08C70.5985 35.24 70.5085 36.89 70.3885 38.03C70.3285 39.11 70.2385 39.86 70.1185 40.28C70.0585 40.7 70.0285 41.06 70.0285 41.36C70.9885 40.58 71.5885 40.13 71.8285 40.01C72.1285 39.83 72.3685 39.83 72.5485 40.01ZM67.5985 46.49C67.7185 46.07 67.8085 45.77 67.8685 45.59C67.9285 45.41 67.9585 45.26 67.9585 45.14C68.0185 45.08 68.0485 44.99 68.0485 44.87C68.0485 44.81 68.1085 44.63 68.2285 44.33C67.2085 45.53 66.2485 46.61 65.3485 47.57C64.5085 48.53 63.8485 49.79 63.3685 51.35C63.1885 52.07 63.0985 52.76 63.0985 53.42C63.0985 54.08 63.2485 54.38 63.5485 54.32C63.8485 54.26 64.3285 53.66 64.9885 52.52C65.6485 51.38 66.5185 49.37 67.5985 46.49ZM97.07 40.01C97.31 40.19 97.34 40.43 97.16 40.73C96.92 40.97 96.74 41.12 96.62 41.18C96.56 41.18 96.5 41.21 96.44 41.27C96.44 41.27 96.35 41.33 96.17 41.45C96.05 41.57 95.87 41.72 95.63 41.9C95.39 42.14 95.15 42.35 94.91 42.53C94.67 42.71 94.49 42.83 94.37 42.89C93.23 46.73 92.36 49.31 91.76 50.63C91.4 51.47 91.1 52.1 90.86 52.52C90.14 53.9 89.45 54.8 88.79 55.22C88.19 55.64 87.68 55.7 87.26 55.4C86.84 55.16 86.57 54.65 86.45 53.87C86.33 53.09 86.45 52.16 86.81 51.08C87.23 49.94 87.74 48.92 88.34 48.02C88.94 47.12 89.54 46.31 90.14 45.59C90.74 44.93 91.28 44.33 91.76 43.79C92.3 43.31 92.72 42.92 93.02 42.62C93.32 42.32 93.53 40.91 93.65 38.39C93.83 35.87 94.01 32.51 94.19 28.31C94.07 28.61 93.92 29.15 93.74 29.93C93.56 30.71 93.32 31.61 93.02 32.63C92.72 33.59 92.36 34.58 91.94 35.6C91.58 36.62 91.16 37.52 90.68 38.3C90.02 39.38 89.33 39.95 88.61 40.01C87.95 40.07 87.32 39.8 86.72 39.2C86.12 38.54 85.58 37.61 85.1 36.41C84.62 35.21 84.26 33.89 84.02 32.45C83.84 31.01 83.75 29.57 83.75 28.13C83.81 26.63 84.05 25.25 84.47 23.99C84.65 23.63 84.86 23.42 85.1 23.36C85.4 23.3 85.61 23.36 85.73 23.54C86.03 23.84 86.03 24.17 85.73 24.53C85.43 24.89 85.28 25.22 85.28 25.52C84.98 28.04 84.95 30.17 85.19 31.91C85.49 33.65 85.85 35.06 86.27 36.14C86.75 37.16 87.2 37.88 87.62 38.3C88.1 38.66 88.43 38.78 88.61 38.66C89.03 38.48 89.45 38.03 89.87 37.31C90.29 36.59 90.68 35.72 91.04 34.7C91.46 33.68 91.85 32.6 92.21 31.46C92.57 30.32 92.87 29.27 93.11 28.31C93.41 27.29 93.62 26.42 93.74 25.7C93.92 24.98 94.04 24.53 94.1 24.35C94.1 24.23 94.16 24.11 94.28 23.99C94.4 23.81 94.55 23.72 94.73 23.72C94.97 23.6 95.12 23.66 95.18 23.9C95.3 24.14 95.33 24.26 95.27 24.26C95.27 27.98 95.24 30.92 95.18 33.08C95.12 35.24 95.03 36.89 94.91 38.03C94.85 39.11 94.76 39.86 94.64 40.28C94.58 40.7 94.55 41.06 94.55 41.36C95.51 40.58 96.11 40.13 96.35 40.01C96.65 39.83 96.89 39.83 97.07 40.01ZM92.12 46.49C92.24 46.07 92.33 45.77 92.39 45.59C92.45 45.41 92.48 45.26 92.48 45.14C92.54 45.08 92.57 44.99 92.57 44.87C92.57 44.81 92.63 44.63 92.75 44.33C91.73 45.53 90.77 46.61 89.87 47.57C89.03 48.53 88.37 49.79 87.89 51.35C87.71 52.07 87.62 52.76 87.62 53.42C87.62 54.08 87.77 54.38 88.07 54.32C88.37 54.26 88.85 53.66 89.51 52.52C90.17 51.38 91.04 49.37 92.12 46.49ZM110.126 27.86C110.486 27.98 110.486 28.55 110.126 29.57C109.406 31.67 108.806 33.35 108.326 34.61C107.906 35.87 107.546 36.86 107.246 37.58C106.946 38.3 106.646 38.78 106.346 39.02C106.106 39.26 105.806 39.38 105.446 39.38C104.966 39.38 104.606 38.99 104.366 38.21C104.126 37.37 103.946 36.47 103.826 35.51C103.706 34.55 103.646 33.68 103.646 32.9C103.646 32.12 103.646 31.73 103.646 31.73C103.466 32.57 103.226 33.47 102.926 34.43C102.626 35.33 102.296 36.2 101.936 37.04C101.576 37.82 101.186 38.51 100.766 39.11C100.346 39.65 99.9256 39.98 99.5056 40.1C98.7856 40.28 98.1856 40.1 97.7056 39.56C97.0456 38.66 96.7756 37.31 96.8956 35.51C96.9556 33.71 97.2856 31.94 97.8856 30.2C98.4256 28.4 99.1456 26.84 100.046 25.52C101.006 24.14 102.026 23.39 103.106 23.27C103.466 23.27 103.706 23.3 103.826 23.36C104.066 23.48 104.186 23.39 104.186 23.09C104.186 22.79 104.216 22.49 104.276 22.19C104.396 21.89 104.486 21.59 104.546 21.29C104.606 20.87 104.846 20.66 105.266 20.66C105.566 20.66 105.716 20.81 105.716 21.11C105.716 21.53 105.686 21.83 105.626 22.01C105.506 22.31 105.416 22.61 105.356 22.91C105.356 23.21 105.326 23.51 105.266 23.81V24.35C105.326 24.53 105.296 24.8 105.176 25.16C105.056 25.4 104.996 25.76 104.996 26.24C104.876 26.54 104.816 26.87 104.816 27.23C104.876 27.59 104.876 27.92 104.816 28.22C104.696 29.12 104.636 30.08 104.636 31.1C104.636 32.12 104.666 33.08 104.726 33.98C104.846 34.88 104.966 35.66 105.086 36.32C105.206 36.98 105.266 37.37 105.266 37.49C105.386 38.39 105.626 38.54 105.986 37.94C106.406 37.28 106.826 36.35 107.246 35.15C107.666 33.95 108.056 32.75 108.416 31.55C108.776 30.29 109.016 29.51 109.136 29.21C109.196 29.09 109.286 28.82 109.406 28.4C109.586 27.98 109.826 27.8 110.126 27.86ZM103.736 25.16C103.736 24.98 103.676 24.86 103.556 24.8C102.956 24.56 102.356 24.71 101.756 25.25C101.216 25.73 100.706 26.45 100.226 27.41C99.7456 28.31 99.3256 29.36 98.9656 30.56C98.6656 31.76 98.4556 32.93 98.3356 34.07C98.1556 35.21 98.0956 36.23 98.1556 37.13C98.1556 37.97 98.3356 38.54 98.6956 38.84C98.8756 39.02 99.0856 39.05 99.3256 38.93C100.046 38.27 100.646 37.37 101.126 36.23C101.666 35.09 102.086 33.86 102.386 32.54C102.746 31.22 103.016 29.93 103.196 28.67C103.436 27.35 103.616 26.18 103.736 25.16ZM119.944 27.41C120.304 27.41 120.484 27.59 120.484 27.95V28.04C120.364 28.52 120.124 29.24 119.764 30.2C119.404 31.16 118.984 32.12 118.504 33.08C118.024 34.04 117.484 34.91 116.884 35.69C116.344 36.41 115.804 36.77 115.264 36.77C114.964 36.77 114.604 36.65 114.184 36.41C113.764 36.11 113.344 35.81 112.924 35.51C112.504 35.15 112.114 34.82 111.754 34.52C111.454 34.16 111.274 33.92 111.214 33.8C111.154 33.74 111.034 33.62 110.854 33.44C110.674 33.2 110.554 33.11 110.494 33.17C110.554 33.53 110.614 34.22 110.674 35.24C110.794 36.2 110.854 37.22 110.854 38.3C110.914 39.38 110.884 40.31 110.764 41.09C110.704 41.93 110.524 42.35 110.224 42.35C109.564 42.35 109.174 41.66 109.054 40.28C108.874 38.9 108.814 37.37 108.874 35.69C108.934 34.01 109.054 32.45 109.234 31.01C109.354 29.57 109.414 28.76 109.414 28.58C109.414 26.72 109.444 24.68 109.504 22.46C109.564 20.18 109.714 17.87 109.954 15.53C110.254 13.19 110.674 10.88 111.214 8.6C111.814 6.26 112.624 4.07 113.644 2.03C113.884 1.67 114.154 1.46 114.454 1.4C114.934 1.16 115.294 1.34 115.534 1.94C115.954 2.78 116.044 3.92 115.804 5.36C115.564 6.74 115.204 8.24 114.724 9.86C114.244 11.48 113.704 13.1 113.104 14.72C112.564 16.34 112.174 17.72 111.934 18.86C111.754 19.64 111.574 20.48 111.394 21.38C111.214 22.28 111.004 23.09 110.764 23.81C110.764 23.93 110.734 24.08 110.674 24.26C110.674 24.38 110.674 24.5 110.674 24.62V25.88V26.06C110.674 26.18 110.704 26.24 110.764 26.24C110.764 26.24 110.794 26.21 110.854 26.15L111.664 24.8C111.784 24.56 111.904 24.35 112.024 24.17C112.204 23.99 112.354 23.81 112.474 23.63C112.834 23.15 113.254 22.73 113.734 22.37C114.214 21.89 114.694 21.62 115.174 21.56C115.654 21.44 116.044 21.56 116.344 21.92C116.644 22.22 116.794 22.58 116.794 23C116.734 23.78 116.464 24.59 115.984 25.43C115.804 25.79 115.594 26.15 115.354 26.51C115.174 26.81 114.934 27.14 114.634 27.5C114.514 27.68 114.334 27.86 114.094 28.04C113.914 28.22 113.734 28.37 113.554 28.49C113.254 28.73 112.954 28.97 112.654 29.21C112.414 29.39 112.144 29.54 111.844 29.66C111.664 29.78 111.484 29.87 111.304 29.93C111.184 29.99 111.034 30.05 110.854 30.11C110.734 30.11 110.674 30.2 110.674 30.38C110.674 30.5 110.674 30.65 110.674 30.83C110.734 31.01 110.734 31.16 110.674 31.28C110.674 31.4 110.734 31.58 110.854 31.82C111.034 32.06 111.304 32.45 111.664 32.99C112.084 33.47 112.534 33.95 113.014 34.43C113.494 34.91 113.974 35.3 114.454 35.6C114.934 35.84 115.354 35.81 115.714 35.51C116.554 34.79 117.334 33.65 118.054 32.09C118.774 30.53 119.254 29.12 119.494 27.86C119.614 27.56 119.764 27.41 119.944 27.41ZM111.124 28.67C111.124 28.67 111.124 28.7 111.124 28.76H111.214H111.304C112.384 28.16 113.314 27.32 114.094 26.24C114.274 26 114.424 25.76 114.544 25.52C114.724 25.22 114.904 24.92 115.084 24.62C115.204 24.32 115.294 24.08 115.354 23.9C115.414 23.66 115.474 23.39 115.534 23.09C115.534 22.91 115.444 22.85 115.264 22.91C115.204 22.91 115.054 22.97 114.814 23.09C114.694 23.21 114.544 23.36 114.364 23.54C114.244 23.66 114.124 23.78 114.004 23.9C113.764 24.14 113.524 24.38 113.284 24.62C113.104 24.8 112.954 25.04 112.834 25.34C112.594 25.64 112.384 25.94 112.204 26.24C112.084 26.54 111.934 26.84 111.754 27.14C111.514 27.62 111.304 28.13 111.124 28.67ZM111.124 17.6C111.124 17.6 111.124 17.66 111.124 17.78C111.124 17.72 111.154 17.66 111.214 17.6C111.754 15.32 112.384 13.1 113.104 10.94C113.884 8.72 114.424 6.47 114.724 4.19C114.724 3.77 114.634 3.62 114.454 3.74C114.334 3.86 114.184 4.07 114.004 4.37C113.884 4.61 113.734 4.91 113.554 5.27C113.434 5.57 113.374 5.72 113.374 5.72C113.074 6.5 112.834 7.28 112.654 8.06C112.474 8.84 112.294 9.62 112.114 10.4C112.054 10.76 111.994 11.12 111.934 11.48C111.874 11.84 111.814 12.2 111.754 12.56C111.634 13.04 111.544 13.55 111.484 14.09C111.484 14.57 111.424 15.05 111.304 15.53C111.244 15.89 111.214 16.25 111.214 16.61C111.214 16.91 111.184 17.24 111.124 17.6ZM109.774 32.63C109.774 32.69 109.774 33.17 109.774 34.07C109.774 34.97 109.774 35.96 109.774 37.04C109.774 38.06 109.774 39.02 109.774 39.92C109.834 40.76 109.924 41.18 110.044 41.18C110.164 41.18 110.224 40.73 110.224 39.83C110.224 38.87 110.164 37.85 110.044 36.77C109.984 35.69 109.924 34.73 109.864 33.89C109.804 32.99 109.774 32.57 109.774 32.63ZM126.634 28.76C126.694 28.76 126.724 29.09 126.724 29.75C126.724 30.35 126.664 31.13 126.544 32.09C126.424 33.05 126.244 34.1 126.004 35.24C125.764 36.38 125.434 37.43 125.014 38.39C124.654 39.35 124.174 40.16 123.574 40.82C122.974 41.48 122.284 41.81 121.504 41.81C120.304 41.81 119.524 41 119.164 39.38C118.744 37.7 118.594 35.81 118.714 33.71C118.834 31.61 119.134 29.63 119.614 27.77C120.154 25.85 120.694 24.62 121.234 24.08C121.414 23.96 121.564 23.84 121.684 23.72C121.864 23.6 122.104 23.51 122.404 23.45C122.764 23.45 122.974 23.57 123.034 23.81C123.154 24.17 123.004 24.41 122.584 24.53C122.404 24.65 122.254 24.8 122.134 24.98C122.014 25.1 121.894 25.22 121.774 25.34C121.294 25.94 120.874 27.08 120.514 28.76C120.154 30.38 119.914 32.09 119.794 33.89C119.734 35.63 119.824 37.19 120.064 38.57C120.364 39.95 120.874 40.64 121.594 40.64C122.374 40.64 123.004 40.1 123.484 39.02C124.024 37.94 124.444 36.71 124.744 35.33C125.104 33.95 125.314 32.63 125.374 31.37C125.494 30.11 125.524 29.27 125.464 28.85C125.104 28.97 124.714 28.97 124.294 28.85C123.874 28.73 123.484 28.55 123.124 28.31C122.824 28.07 122.614 27.77 122.494 27.41C122.434 26.99 122.584 26.51 122.944 25.97C123.184 25.55 123.784 25.4 124.744 25.52C125.404 25.64 125.764 25.88 125.824 26.24C125.944 26.6 126.124 26.93 126.364 27.23C126.424 27.35 126.634 27.41 126.994 27.41C127.354 27.41 127.744 27.38 128.164 27.32C128.644 27.2 129.094 27.11 129.514 27.05C129.934 26.93 130.204 26.84 130.324 26.78H130.864C130.984 26.9 131.044 27.02 131.044 27.14C131.104 27.26 131.044 27.38 130.864 27.5C130.864 27.5 130.804 27.53 130.684 27.59C130.564 27.65 130.474 27.68 130.414 27.68C130.354 27.68 130.264 27.71 130.144 27.77L126.634 28.76ZM125.464 27.68C125.404 27.5 125.314 27.29 125.194 27.05C125.074 26.93 124.954 26.81 124.834 26.69C124.774 26.51 124.654 26.42 124.474 26.42C124.114 26.42 123.904 26.69 123.844 27.23C123.784 27.71 123.994 27.95 124.474 27.95C125.014 27.95 125.314 27.92 125.374 27.86C125.434 27.8 125.464 27.74 125.464 27.68ZM142.94 26.87C143.06 26.99 143.15 27.17 143.21 27.41C143.27 27.65 143.24 27.86 143.12 28.04C143.06 28.22 142.79 28.64 142.31 29.3C141.89 29.9 141.23 30.2 140.33 30.2C139.73 30.2 139.22 30.11 138.8 29.93C138.44 29.69 138.2 29.51 138.08 29.39C137.9 30.23 137.63 31.16 137.27 32.18C136.97 33.2 136.64 34.28 136.28 35.42C135.98 36.5 135.65 37.58 135.29 38.66C134.93 39.68 134.63 40.61 134.39 41.45C133.97 42.05 133.52 42.23 133.04 41.99C132.74 41.87 132.56 41.69 132.5 41.45C132.14 40.91 131.78 39.89 131.42 38.39C131.12 36.83 130.85 35.21 130.61 33.53C130.37 31.79 130.19 30.17 130.07 28.67C129.95 27.17 129.89 26.15 129.89 25.61V24.71C129.89 24.23 130.07 23.99 130.43 23.99C130.85 23.87 131.12 24.05 131.24 24.53V24.8C131.18 25.1 131.15 25.55 131.15 26.15C131.15 26.63 131.18 27.53 131.24 28.85C131.36 30.17 131.51 31.58 131.69 33.08C131.87 34.58 132.08 36.02 132.32 37.4C132.56 38.78 132.86 39.8 133.22 40.46C133.4 40.64 133.52 40.64 133.58 40.46C133.76 40.28 134.03 39.62 134.39 38.48C134.75 37.28 135.11 35.99 135.47 34.61C135.83 33.23 136.16 31.94 136.46 30.74C136.76 29.54 136.97 28.82 137.09 28.58C137.09 28.46 137.09 28.4 137.09 28.4C137.15 28.34 137.15 28.25 137.09 28.13C136.97 27.23 137.03 26.24 137.27 25.16C137.51 24.02 137.87 23.03 138.35 22.19C138.53 21.89 138.74 21.74 138.98 21.74C139.46 21.74 139.73 21.95 139.79 22.37V22.73C139.61 24.29 139.25 25.88 138.71 27.5C138.65 27.62 138.62 27.77 138.62 27.95C138.62 28.07 138.59 28.19 138.53 28.31C139.13 29.03 139.76 29.3 140.42 29.12C141.08 28.94 141.62 28.46 142.04 27.68L142.31 27.14C142.55 26.78 142.76 26.69 142.94 26.87ZM153.181 27.68C153.301 27.74 153.361 27.98 153.361 28.4C153.001 28.94 152.491 30.02 151.831 31.64C151.231 33.2 150.481 34.76 149.581 36.32C148.741 37.88 147.781 39.14 146.701 40.1C145.681 41 144.631 41.06 143.551 40.28C142.351 39.38 141.631 37.94 141.391 35.96C141.151 33.92 141.271 31.79 141.751 29.57C142.171 27.29 142.861 25.16 143.821 23.18C144.841 21.2 146.011 19.85 147.331 19.13C147.871 18.83 148.291 18.74 148.591 18.86C148.951 18.98 149.221 19.22 149.401 19.58C149.581 19.94 149.701 20.36 149.761 20.84C149.821 21.32 149.851 21.74 149.851 22.1C149.791 22.22 149.761 22.31 149.761 22.37C149.821 22.43 149.821 22.52 149.761 22.64C149.701 22.94 149.611 23.24 149.491 23.54C149.431 23.78 149.341 24.05 149.221 24.35C148.681 25.73 147.811 27.08 146.611 28.4C145.471 29.66 144.211 30.53 142.831 31.01C142.651 31.13 142.561 31.25 142.561 31.37C142.501 31.67 142.441 32.24 142.381 33.08C142.321 33.92 142.321 34.79 142.381 35.69C142.501 36.59 142.741 37.43 143.101 38.21C143.461 38.99 144.031 39.5 144.811 39.74C145.411 39.92 146.071 39.56 146.791 38.66C147.571 37.76 148.291 36.68 148.951 35.42C149.671 34.1 150.301 32.78 150.841 31.46C151.441 30.14 151.891 29.18 152.191 28.58C152.191 28.46 152.191 28.4 152.191 28.4C152.251 28.34 152.281 28.25 152.281 28.13C152.521 27.65 152.821 27.5 153.181 27.68ZM148.321 20.03C147.841 20.03 147.301 20.39 146.701 21.11C146.161 21.77 145.621 22.58 145.081 23.54C144.541 24.5 144.061 25.55 143.641 26.69C143.221 27.77 142.981 28.7 142.921 29.48C142.861 30.02 143.221 29.96 144.001 29.3C144.841 28.64 145.681 27.77 146.521 26.69C147.421 25.55 148.111 24.35 148.591 23.09C149.071 21.77 148.981 20.75 148.321 20.03ZM161.845 40.55C162.085 40.67 162.145 40.88 162.025 41.18C161.965 41.48 161.665 41.63 161.125 41.63C160.765 41.63 160.465 41.45 160.225 41.09C159.985 40.73 159.775 40.04 159.595 39.02C159.475 38 159.385 36.59 159.325 34.79C159.325 32.99 159.355 30.65 159.415 27.77C159.415 27.71 159.385 27.5 159.325 27.14C159.325 26.72 159.235 26.51 159.055 26.51C158.695 26.51 158.305 26.84 157.885 27.5C157.525 28.16 157.165 29.03 156.805 30.11C156.445 31.13 156.115 32.24 155.815 33.44C155.515 34.64 155.245 35.78 155.005 36.86C154.765 37.88 154.555 38.78 154.375 39.56C154.255 40.34 154.165 40.79 154.105 40.91C153.925 41.21 153.685 41.33 153.385 41.27C153.085 41.21 152.875 41.03 152.755 40.73C152.515 39.59 152.335 38.48 152.215 37.4C152.095 36.32 152.035 35.15 152.035 33.89C152.035 32.63 152.095 31.22 152.215 29.66C152.275 28.1 152.455 26.24 152.755 24.08C152.875 23.48 153.145 23.3 153.565 23.54C153.745 23.6 153.865 23.75 153.925 23.99C153.985 24.17 153.985 24.35 153.925 24.53C153.565 27.05 153.325 29.39 153.205 31.55C153.145 33.71 153.265 35.72 153.565 37.58L153.655 37.67V37.58C153.715 37.46 153.745 37.34 153.745 37.22C153.745 37.04 153.775 36.89 153.835 36.77C153.955 36.23 154.135 35.36 154.375 34.16C154.675 32.9 155.035 31.64 155.455 30.38C155.935 29.12 156.445 27.98 156.985 26.96C157.585 25.88 158.215 25.25 158.875 25.07C159.475 24.89 159.895 25.13 160.135 25.79C160.375 26.45 160.525 27.35 160.585 28.49C160.705 29.57 160.735 30.77 160.675 32.09C160.615 33.41 160.585 34.67 160.585 35.87C160.585 37.01 160.615 38.03 160.675 38.93C160.735 39.77 160.945 40.28 161.305 40.46C161.425 40.52 161.515 40.52 161.575 40.46C161.635 40.4 161.725 40.43 161.845 40.55ZM174.964 27.41C175.324 27.41 175.504 27.59 175.504 27.95V28.04C175.384 28.52 175.144 29.24 174.784 30.2C174.424 31.16 174.004 32.12 173.524 33.08C173.044 34.04 172.504 34.91 171.904 35.69C171.364 36.41 170.824 36.77 170.284 36.77C169.984 36.77 169.624 36.65 169.204 36.41C168.784 36.11 168.364 35.81 167.944 35.51C167.524 35.15 167.134 34.82 166.774 34.52C166.474 34.16 166.294 33.92 166.234 33.8C166.174 33.74 166.054 33.62 165.874 33.44C165.694 33.2 165.574 33.11 165.514 33.17C165.574 33.53 165.634 34.22 165.694 35.24C165.814 36.2 165.874 37.22 165.874 38.3C165.934 39.38 165.904 40.31 165.784 41.09C165.724 41.93 165.544 42.35 165.244 42.35C164.584 42.35 164.194 41.66 164.074 40.28C163.894 38.9 163.834 37.37 163.894 35.69C163.954 34.01 164.074 32.45 164.254 31.01C164.374 29.57 164.434 28.76 164.434 28.58C164.434 26.72 164.464 24.68 164.524 22.46C164.584 20.18 164.734 17.87 164.974 15.53C165.274 13.19 165.694 10.88 166.234 8.6C166.834 6.26 167.644 4.07 168.664 2.03C168.904 1.67 169.174 1.46 169.474 1.4C169.954 1.16 170.314 1.34 170.554 1.94C170.974 2.78 171.064 3.92 170.824 5.36C170.584 6.74 170.224 8.24 169.744 9.86C169.264 11.48 168.724 13.1 168.124 14.72C167.584 16.34 167.194 17.72 166.954 18.86C166.774 19.64 166.594 20.48 166.414 21.38C166.234 22.28 166.024 23.09 165.784 23.81C165.784 23.93 165.754 24.08 165.694 24.26C165.694 24.38 165.694 24.5 165.694 24.62V25.88V26.06C165.694 26.18 165.724 26.24 165.784 26.24C165.784 26.24 165.814 26.21 165.874 26.15L166.684 24.8C166.804 24.56 166.924 24.35 167.044 24.17C167.224 23.99 167.374 23.81 167.494 23.63C167.854 23.15 168.274 22.73 168.754 22.37C169.234 21.89 169.714 21.62 170.194 21.56C170.674 21.44 171.064 21.56 171.364 21.92C171.664 22.22 171.814 22.58 171.814 23C171.754 23.78 171.484 24.59 171.004 25.43C170.824 25.79 170.614 26.15 170.374 26.51C170.194 26.81 169.954 27.14 169.654 27.5C169.534 27.68 169.354 27.86 169.114 28.04C168.934 28.22 168.754 28.37 168.574 28.49C168.274 28.73 167.974 28.97 167.674 29.21C167.434 29.39 167.164 29.54 166.864 29.66C166.684 29.78 166.504 29.87 166.324 29.93C166.204 29.99 166.054 30.05 165.874 30.11C165.754 30.11 165.694 30.2 165.694 30.38C165.694 30.5 165.694 30.65 165.694 30.83C165.754 31.01 165.754 31.16 165.694 31.28C165.694 31.4 165.754 31.58 165.874 31.82C166.054 32.06 166.324 32.45 166.684 32.99C167.104 33.47 167.554 33.95 168.034 34.43C168.514 34.91 168.994 35.3 169.474 35.6C169.954 35.84 170.374 35.81 170.734 35.51C171.574 34.79 172.354 33.65 173.074 32.09C173.794 30.53 174.274 29.12 174.514 27.86C174.634 27.56 174.784 27.41 174.964 27.41ZM166.144 28.67C166.144 28.67 166.144 28.7 166.144 28.76H166.234H166.324C167.404 28.16 168.334 27.32 169.114 26.24C169.294 26 169.444 25.76 169.564 25.52C169.744 25.22 169.924 24.92 170.104 24.62C170.224 24.32 170.314 24.08 170.374 23.9C170.434 23.66 170.494 23.39 170.554 23.09C170.554 22.91 170.464 22.85 170.284 22.91C170.224 22.91 170.074 22.97 169.834 23.09C169.714 23.21 169.564 23.36 169.384 23.54C169.264 23.66 169.144 23.78 169.024 23.9C168.784 24.14 168.544 24.38 168.304 24.62C168.124 24.8 167.974 25.04 167.854 25.34C167.614 25.64 167.404 25.94 167.224 26.24C167.104 26.54 166.954 26.84 166.774 27.14C166.534 27.62 166.324 28.13 166.144 28.67ZM166.144 17.6C166.144 17.6 166.144 17.66 166.144 17.78C166.144 17.72 166.174 17.66 166.234 17.6C166.774 15.32 167.404 13.1 168.124 10.94C168.904 8.72 169.444 6.47 169.744 4.19C169.744 3.77 169.654 3.62 169.474 3.74C169.354 3.86 169.204 4.07 169.024 4.37C168.904 4.61 168.754 4.91 168.574 5.27C168.454 5.57 168.394 5.72 168.394 5.72C168.094 6.5 167.854 7.28 167.674 8.06C167.494 8.84 167.314 9.62 167.134 10.4C167.074 10.76 167.014 11.12 166.954 11.48C166.894 11.84 166.834 12.2 166.774 12.56C166.654 13.04 166.564 13.55 166.504 14.09C166.504 14.57 166.444 15.05 166.324 15.53C166.264 15.89 166.234 16.25 166.234 16.61C166.234 16.91 166.204 17.24 166.144 17.6ZM164.794 32.63C164.794 32.69 164.794 33.17 164.794 34.07C164.794 34.97 164.794 35.96 164.794 37.04C164.794 38.06 164.794 39.02 164.794 39.92C164.854 40.76 164.944 41.18 165.064 41.18C165.184 41.18 165.244 40.73 165.244 39.83C165.244 38.87 165.184 37.85 165.064 36.77C165.004 35.69 164.944 34.73 164.884 33.89C164.824 32.99 164.794 32.57 164.794 32.63ZM181.653 28.76C181.713 28.76 181.743 29.09 181.743 29.75C181.743 30.35 181.683 31.13 181.563 32.09C181.443 33.05 181.263 34.1 181.023 35.24C180.783 36.38 180.453 37.43 180.033 38.39C179.673 39.35 179.193 40.16 178.593 40.82C177.993 41.48 177.303 41.81 176.523 41.81C175.323 41.81 174.543 41 174.183 39.38C173.763 37.7 173.613 35.81 173.733 33.71C173.853 31.61 174.153 29.63 174.633 27.77C175.173 25.85 175.713 24.62 176.253 24.08C176.433 23.96 176.583 23.84 176.703 23.72C176.883 23.6 177.123 23.51 177.423 23.45C177.783 23.45 177.993 23.57 178.053 23.81C178.173 24.17 178.023 24.41 177.603 24.53C177.423 24.65 177.273 24.8 177.153 24.98C177.033 25.1 176.913 25.22 176.793 25.34C176.313 25.94 175.893 27.08 175.533 28.76C175.173 30.38 174.933 32.09 174.813 33.89C174.753 35.63 174.843 37.19 175.083 38.57C175.383 39.95 175.893 40.64 176.613 40.64C177.393 40.64 178.023 40.1 178.503 39.02C179.043 37.94 179.463 36.71 179.763 35.33C180.123 33.95 180.333 32.63 180.393 31.37C180.513 30.11 180.543 29.27 180.483 28.85C180.123 28.97 179.733 28.97 179.313 28.85C178.893 28.73 178.503 28.55 178.143 28.31C177.843 28.07 177.633 27.77 177.513 27.41C177.453 26.99 177.603 26.51 177.963 25.97C178.203 25.55 178.803 25.4 179.763 25.52C180.423 25.64 180.783 25.88 180.843 26.24C180.963 26.6 181.143 26.93 181.383 27.23C181.443 27.35 181.653 27.41 182.013 27.41C182.373 27.41 182.763 27.38 183.183 27.32C183.663 27.2 184.113 27.11 184.533 27.05C184.953 26.93 185.223 26.84 185.343 26.78H185.883C186.003 26.9 186.063 27.02 186.063 27.14C186.123 27.26 186.063 27.38 185.883 27.5C185.883 27.5 185.823 27.53 185.703 27.59C185.583 27.65 185.493 27.68 185.433 27.68C185.373 27.68 185.283 27.71 185.163 27.77L181.653 28.76ZM180.483 27.68C180.423 27.5 180.333 27.29 180.213 27.05C180.093 26.93 179.973 26.81 179.853 26.69C179.793 26.51 179.673 26.42 179.493 26.42C179.133 26.42 178.923 26.69 178.863 27.23C178.803 27.71 179.013 27.95 179.493 27.95C180.033 27.95 180.333 27.92 180.393 27.86C180.453 27.8 180.483 27.74 180.483 27.68Z" fill="#AEAEAE"/>
</svg>
