<svg width="106" height="17" viewBox="0 0 106 17" fill="none" xmlns="http://www.w3.org/2000/svg">
<g clip-path="url(#clip0_29243_114)">
<path d="M3.08623 12.4485C3.20089 12.333 3.35855 12.2656 3.52576 12.2656H18.6895C18.9665 12.2656 19.1051 12.6025 18.9092 12.7998L15.9137 15.8171C15.7991 15.9326 15.6414 16 15.4742 16H0.310522C0.0334288 16 -0.105118 15.6631 0.0907584 15.4658L3.08623 12.4485Z" fill="white"/>
<path d="M3.08599 1.18287C3.20542 1.06737 3.36308 1 3.52552 1H18.6892C18.9663 1 19.1048 1.33686 18.909 1.53417L15.9135 4.55149C15.7988 4.66699 15.6412 4.73436 15.474 4.73436H0.310278C0.0331846 4.73436 -0.105362 4.3975 0.0905143 4.20019L3.08599 1.18287Z" fill="white"/>
<path d="M15.9137 6.77961C15.7991 6.66411 15.6414 6.59674 15.4742 6.59674H0.310522C0.0334288 6.59674 -0.105118 6.9336 0.0907584 7.13091L3.08623 10.1482C3.20089 10.2637 3.35855 10.3311 3.52576 10.3311H18.6895C18.9665 10.3311 19.1051 9.99424 18.9092 9.79693L15.9137 6.77961Z" fill="white"/>
</g>
<path d="M28.0746 2.63636H31.2983L34.7031 10.9432H34.848L38.2528 2.63636H41.4766V15H38.9411V6.95277H38.8384L35.6388 14.9396H33.9123L30.7127 6.92258H30.6101V15H28.0746V2.63636ZM43.5819 15V5.72727H46.1537V15H43.5819ZM44.8738 4.53196C44.4915 4.53196 44.1635 4.40518 43.8898 4.15163C43.6202 3.89406 43.4854 3.58617 43.4854 3.22798C43.4854 2.87382 43.6202 2.56996 43.8898 2.31641C44.1635 2.05883 44.4915 1.93004 44.8738 1.93004C45.2562 1.93004 45.5822 2.05883 45.8518 2.31641C46.1255 2.56996 46.2623 2.87382 46.2623 3.22798C46.2623 3.58617 46.1255 3.89406 45.8518 4.15163C45.5822 4.40518 45.2562 4.53196 44.8738 4.53196ZM50.7855 9.6392V15H48.2138V5.72727H50.6648V7.36328H50.7734C50.9787 6.82398 51.3228 6.39737 51.8058 6.08345C52.2887 5.76551 52.8743 5.60653 53.5625 5.60653C54.2064 5.60653 54.7679 5.7474 55.2468 6.02912C55.7257 6.31084 56.098 6.7133 56.3636 7.23651C56.6293 7.75568 56.7621 8.37547 56.7621 9.09588V15H54.1903V9.55469C54.1944 8.98722 54.0495 8.54451 53.7557 8.22656C53.4619 7.90459 53.0574 7.74361 52.5423 7.74361C52.1961 7.74361 51.8903 7.81806 51.6246 7.96697C51.363 8.11589 51.1578 8.33321 51.0089 8.61896C50.864 8.90069 50.7895 9.24077 50.7855 9.6392ZM63.7211 5.72727V7.65909H58.137V5.72727H63.7211ZM59.4047 3.50568H61.9765V12.1506C61.9765 12.388 62.0127 12.5732 62.0851 12.706C62.1576 12.8348 62.2582 12.9253 62.387 12.9776C62.5198 13.0299 62.6727 13.0561 62.8458 13.0561C62.9665 13.0561 63.0873 13.046 63.208 13.0259C63.3287 13.0018 63.4213 12.9837 63.4857 12.9716L63.8902 14.8853C63.7614 14.9255 63.5803 14.9718 63.3469 15.0241C63.1134 15.0805 62.8297 15.1147 62.4956 15.1268C61.8759 15.1509 61.3325 15.0684 60.8657 14.8793C60.4028 14.6901 60.0426 14.3963 59.7851 13.9979C59.5275 13.5994 59.4007 13.0964 59.4047 12.4886V3.50568ZM79.7205 2.63636V15H77.4627L72.0838 7.21839H71.9933V15H69.3793V2.63636H71.6733L77.0099 10.4119H77.1186V2.63636H79.7205ZM86.0216 15.1811C85.0838 15.1811 84.2729 14.9819 83.5887 14.5835C82.9085 14.181 82.3833 13.6216 82.0131 12.9052C81.6428 12.1848 81.4577 11.3497 81.4577 10.3999C81.4577 9.442 81.6428 8.60488 82.0131 7.88849C82.3833 7.16809 82.9085 6.60866 83.5887 6.21023C84.2729 5.80776 85.0838 5.60653 86.0216 5.60653C86.9593 5.60653 87.7683 5.80776 88.4484 6.21023C89.1326 6.60866 89.6598 7.16809 90.0301 7.88849C90.4004 8.60488 90.5855 9.442 90.5855 10.3999C90.5855 11.3497 90.4004 12.1848 90.0301 12.9052C89.6598 13.6216 89.1326 14.181 88.4484 14.5835C87.7683 14.9819 86.9593 15.1811 86.0216 15.1811ZM86.0336 13.1889C86.4603 13.1889 86.8164 13.0682 87.1022 12.8267C87.3879 12.5812 87.6032 12.2472 87.7481 11.8246C87.897 11.402 87.9715 10.921 87.9715 10.3817C87.9715 9.84245 87.897 9.36151 87.7481 8.93892C87.6032 8.51634 87.3879 8.18229 87.1022 7.93679C86.8164 7.69129 86.4603 7.56854 86.0336 7.56854C85.603 7.56854 85.2408 7.69129 84.947 7.93679C84.6572 8.18229 84.4379 8.51634 84.289 8.93892C84.1441 9.36151 84.0716 9.84245 84.0716 10.3817C84.0716 10.921 84.1441 11.402 84.289 11.8246C84.4379 12.2472 84.6572 12.5812 84.947 12.8267C85.2408 13.0682 85.603 13.1889 86.0336 13.1889ZM93.8545 15L91.3311 5.72727H93.933L95.3698 11.9574H95.4543L96.9514 5.72727H99.5051L101.026 11.9212H101.105L102.517 5.72727H105.113L102.596 15H99.8733L98.2796 9.16832H98.1649L96.5711 15H93.8545Z" fill="white"/>
<defs>
<clipPath id="clip0_29243_114">
<rect width="19" height="15" fill="white" transform="translate(0 1)"/>
</clipPath>
</defs>
</svg>
