<svg width="19" height="15" viewBox="0 0 19 15" fill="none" xmlns="http://www.w3.org/2000/svg">
<g clip-path="url(#clip0_67_117)">
<path d="M3.08623 11.4485C3.20089 11.333 3.35855 11.2656 3.52576 11.2656H18.6895C18.9665 11.2656 19.1051 11.6025 18.9092 11.7998L15.9137 14.8171C15.7991 14.9326 15.6414 15 15.4742 15H0.310522C0.0334288 15 -0.105118 14.6631 0.0907584 14.4658L3.08623 11.4485Z" fill="black"/>
<path d="M3.08599 0.182868C3.20542 0.0673725 3.36308 0 3.52552 0H18.6892C18.9663 0 19.1048 0.336862 18.909 0.534167L15.9135 3.55149C15.7988 3.66699 15.6412 3.73436 15.474 3.73436H0.310278C0.0331846 3.73436 -0.105362 3.3975 0.0905143 3.20019L3.08599 0.182868Z" fill="black"/>
<path d="M15.9137 5.77955C15.7991 5.66405 15.6414 5.59668 15.4742 5.59668H0.310522C0.0334288 5.59668 -0.105118 5.93354 0.0907584 6.13085L3.08623 9.14817C3.20089 9.26367 3.35855 9.33104 3.52576 9.33104H18.6895C18.9665 9.33104 19.1051 8.99418 18.9092 8.79687L15.9137 5.77955Z" fill="black"/>
</g>
<defs>
<clipPath id="clip0_67_117">
<rect width="19" height="15" fill="white"/>
</clipPath>
</defs>
</svg>
